<?xml version="1.0" standalone="no"?>
<!DOCTYPE svg PUBLIC "-//W3C//DTD SVG 20010904//EN"
 "http://www.w3.org/TR/2001/REC-SVG-20010904/DTD/svg10.dtd">
<svg version="1.0" xmlns="http://www.w3.org/2000/svg"
 width="2000.000000pt" height="2000.000000pt" viewBox="0 0 2000.000000 2000.000000"
 preserveAspectRatio="xMidYMid meet">

<g transform="translate(0.000000,2000.000000) scale(0.100000,-0.100000)"
fill="#000000" stroke="none">
<path d="M7706 16223 c-56 -3 -75 -9 -98 -28 -16 -14 -33 -25 -38 -25 -5 0
-27 -24 -50 -52 l-42 -53 4 -129 c3 -121 4 -129 26 -144 13 -8 29 -30 37 -49
8 -18 19 -33 25 -33 6 0 24 -14 40 -32 l29 -31 218 -4 218 -3 27 -31 c15 -17
31 -47 34 -67 4 -20 4 -228 1 -462 -6 -392 -8 -437 -31 -575 -14 -82 -26 -166
-26 -187 0 -27 -9 -47 -35 -78 -19 -23 -35 -48 -35 -55 0 -8 -11 -22 -24 -32
-13 -10 -31 -33 -40 -51 -9 -18 -20 -32 -25 -32 -5 0 -21 -19 -36 -42 -34 -52
-51 -72 -137 -158 -38 -37 -68 -72 -68 -78 0 -6 -13 -21 -29 -34 -16 -13 -34
-33 -40 -45 -6 -12 -19 -24 -29 -28 -11 -3 -24 -23 -31 -46 -7 -22 -25 -51
-41 -65 -15 -14 -31 -36 -34 -49 -3 -13 -15 -27 -27 -30 -11 -4 -27 -22 -35
-40 -7 -19 -22 -40 -32 -47 -10 -7 -24 -32 -32 -56 -7 -24 -24 -52 -37 -62
-13 -10 -26 -31 -29 -48 -3 -16 -19 -44 -35 -62 -17 -18 -28 -37 -26 -43 2 -6
21 -16 42 -24 22 -7 51 -25 65 -38 14 -14 31 -25 38 -25 6 0 27 -16 46 -35 24
-23 45 -35 64 -35 19 0 39 -12 64 -37 69 -71 84 -83 122 -102 37 -19 38 -19
82 -1 25 11 44 26 44 35 0 9 11 27 25 41 14 14 33 45 42 67 9 23 27 52 39 65
13 13 24 27 24 32 0 5 11 22 25 37 30 34 82 103 110 147 11 17 32 43 48 58 15
15 27 32 27 37 0 6 11 13 24 17 17 4 30 19 40 45 9 21 20 39 26 39 5 0 16 12
25 28 8 15 44 59 80 97 36 39 65 74 65 78 0 4 17 25 38 47 68 72 92 101 92
113 0 7 18 35 40 62 23 29 40 61 40 76 0 14 9 34 20 44 11 10 28 44 36 74 9
31 26 66 37 79 17 19 22 41 28 140 12 190 19 1222 11 1543 l-7 296 -45 44 -45
44 -430 1 c-236 0 -461 -1 -499 -3z"/>
<path d="M11242 16221 c-33 -6 -52 -17 -78 -46 -19 -21 -34 -42 -34 -45 0 -4
-11 -19 -25 -34 l-26 -28 3 -856 3 -857 28 -57 c17 -36 30 -81 34 -123 5 -51
12 -72 28 -89 12 -11 28 -42 35 -69 7 -26 26 -62 41 -80 16 -17 29 -42 29 -55
0 -15 9 -26 25 -32 14 -5 33 -25 42 -45 9 -19 23 -35 30 -35 7 0 17 -10 22
-22 5 -13 30 -47 55 -76 25 -30 46 -57 46 -60 0 -4 10 -12 23 -17 12 -6 23
-20 25 -33 2 -13 14 -28 28 -34 13 -6 29 -26 36 -44 6 -18 20 -35 30 -37 10
-3 22 -17 28 -31 5 -15 21 -31 35 -36 14 -5 31 -22 37 -37 6 -16 22 -39 35
-53 12 -14 29 -43 36 -65 10 -27 21 -41 35 -43 12 -2 24 -13 28 -25 3 -12 22
-36 40 -53 22 -20 34 -41 34 -58 0 -16 13 -38 35 -60 19 -20 35 -42 35 -50 0
-9 9 -20 20 -26 10 -6 27 -26 36 -46 16 -34 19 -36 58 -31 81 11 105 19 112
39 3 11 19 27 35 37 15 9 37 29 49 43 13 17 34 29 59 33 27 4 45 15 56 32 9
13 29 29 45 35 16 5 32 18 35 29 4 10 12 19 19 19 22 0 46 35 46 68 0 20 -10
43 -29 65 -16 18 -37 52 -46 75 -10 23 -21 42 -26 42 -5 0 -20 22 -33 48 -13
27 -32 54 -41 62 -9 7 -25 31 -36 52 -11 21 -24 38 -29 38 -6 0 -16 12 -22 28
-7 15 -26 41 -43 57 -16 17 -46 50 -65 74 -19 24 -50 60 -67 81 -18 20 -33 47
-33 58 0 13 -12 29 -27 39 -34 21 -103 91 -103 103 0 5 -17 27 -37 49 -74 78
-103 114 -103 131 0 9 -13 31 -29 47 -17 18 -33 51 -41 84 -7 30 -23 67 -34
82 -21 28 -21 38 -24 631 -2 554 -1 604 14 617 13 11 69 15 235 19 208 5 219
6 246 28 15 12 43 29 60 37 26 12 35 24 44 61 7 25 21 55 33 65 18 17 21 32
21 102 0 73 -3 86 -28 121 -15 21 -27 47 -27 57 0 10 -12 26 -27 35 -16 10
-38 29 -50 43 l-23 26 -467 2 c-258 1 -487 -2 -511 -6z"/>
<path d="M10257 15893 c-28 -3 -41 -11 -51 -31 -8 -15 -24 -35 -35 -44 -17
-15 -21 -29 -21 -81 0 -60 2 -64 43 -110 l44 -47 69 0 c78 0 121 19 150 67 9
15 25 40 35 55 22 32 23 42 6 60 -7 7 -23 34 -37 60 -14 28 -35 52 -50 57 -32
13 -105 20 -153 14z"/>
<path d="M9532 15419 c-18 -5 -36 -18 -39 -27 -3 -9 -22 -34 -42 -55 l-36 -38
0 -115 c0 -105 2 -117 21 -132 12 -9 30 -32 40 -49 15 -26 25 -33 50 -33 17 0
49 -6 70 -14 33 -11 46 -11 84 0 25 8 55 14 67 14 12 0 31 12 42 28 11 15 30
37 42 49 19 18 23 36 27 122 5 117 -1 139 -64 207 l-44 48 -92 3 c-51 1 -108
-2 -126 -8z"/>
<path d="M15704 15386 c-24 -17 -121 -36 -184 -36 -37 0 -51 -5 -70 -25 -14
-14 -40 -28 -61 -31 -24 -4 -51 -20 -77 -45 -22 -21 -52 -41 -65 -44 -15 -4
-28 -16 -31 -31 -4 -14 -16 -26 -31 -30 -16 -4 -26 -15 -30 -35 -4 -16 -22
-44 -40 -62 -19 -18 -39 -45 -44 -60 -6 -15 -21 -31 -34 -36 -22 -9 -24 -17
-30 -95 -5 -68 -11 -94 -29 -119 -20 -28 -23 -46 -26 -152 -4 -114 -3 -122 21
-156 17 -25 27 -57 31 -100 13 -127 17 -140 41 -151 13 -6 25 -22 28 -38 6
-28 26 -54 49 -63 9 -4 7 -11 -8 -24 -12 -10 -25 -35 -28 -56 -10 -53 -26 -86
-46 -92 -9 -3 -22 -20 -28 -39 -8 -22 -21 -36 -36 -40 -15 -4 -28 -18 -35 -37
-6 -17 -20 -33 -31 -36 -12 -3 -27 -21 -35 -39 -9 -21 -21 -34 -32 -34 -15 0
-22 -13 -32 -61 -11 -48 -19 -62 -37 -70 -13 -4 -24 -15 -24 -23 0 -24 -42
-46 -89 -46 -33 0 -49 -6 -66 -24 -22 -24 -41 -29 -159 -41 -45 -5 -64 -13
-83 -33 -22 -24 -32 -26 -140 -33 -102 -6 -118 -10 -132 -28 -13 -17 -35 -23
-106 -33 -73 -9 -94 -16 -112 -35 -13 -13 -34 -23 -50 -23 -43 0 -94 -17 -118
-40 -15 -14 -46 -25 -95 -32 -52 -8 -78 -17 -93 -33 -12 -12 -44 -28 -72 -34
-27 -7 -61 -23 -75 -35 -14 -13 -42 -27 -63 -30 -20 -4 -52 -20 -70 -35 -22
-20 -48 -31 -85 -36 -39 -5 -57 -13 -68 -30 -8 -13 -28 -28 -44 -33 -16 -6
-33 -20 -39 -31 -7 -13 -32 -27 -66 -37 -30 -8 -59 -24 -65 -34 -5 -9 -28 -25
-52 -35 -23 -9 -48 -25 -55 -35 -7 -10 -28 -23 -46 -29 -18 -6 -37 -21 -42
-33 -7 -16 -24 -26 -54 -34 -25 -6 -53 -21 -65 -35 -12 -14 -33 -33 -48 -42
-16 -10 -28 -24 -28 -31 0 -8 -14 -19 -30 -25 -17 -6 -47 -25 -66 -43 -32 -30
-35 -37 -31 -77 4 -32 13 -50 36 -71 21 -19 33 -42 37 -70 5 -27 15 -46 30
-56 18 -12 25 -31 35 -89 9 -58 17 -78 34 -89 16 -11 24 -28 28 -65 3 -29 9
-56 13 -62 10 -16 65 -2 81 20 7 11 28 25 47 31 19 6 36 19 39 30 3 11 17 24
32 30 15 6 29 19 32 31 3 11 20 27 37 36 17 9 37 24 44 34 7 10 36 25 66 33
43 13 55 21 60 41 4 14 13 25 21 25 8 0 30 16 49 35 21 21 45 35 60 35 37 0
57 10 66 36 7 17 22 25 63 34 37 9 56 19 63 33 5 11 26 26 47 33 21 8 52 25
69 39 22 18 41 25 73 25 53 0 75 8 75 26 0 17 51 44 84 44 33 0 56 10 56 24 0
25 19 37 72 46 38 6 64 17 81 34 23 23 35 26 92 26 61 0 68 2 94 30 23 25 41
33 97 42 48 8 76 19 92 35 35 35 69 30 87 -13 8 -20 15 -45 15 -55 0 -10 10
-24 23 -30 31 -17 37 -28 37 -79 1 -64 15 -119 35 -134 22 -16 34 -85 34 -204
1 -84 3 -95 25 -115 32 -30 37 -52 45 -182 6 -94 11 -116 30 -144 22 -31 23
-41 31 -329 4 -163 5 -439 1 -613 l-6 -315 -27 -33 c-16 -18 -28 -40 -28 -49
0 -9 -5 -57 -10 -106 -8 -74 -13 -93 -35 -116 -18 -19 -25 -37 -25 -66 -1 -63
-25 -170 -43 -188 -8 -9 -21 -42 -27 -74 -17 -84 -20 -91 -40 -102 -11 -6 -21
-26 -25 -51 -4 -24 -18 -52 -35 -69 -21 -21 -29 -41 -34 -87 -5 -46 -13 -66
-36 -92 -17 -18 -30 -41 -30 -52 0 -11 -11 -30 -25 -43 -13 -12 -33 -43 -44
-69 -11 -25 -29 -51 -40 -57 -12 -6 -21 -20 -21 -31 0 -26 -27 -79 -41 -79 -5
0 -17 -16 -25 -35 -8 -19 -26 -42 -40 -51 -14 -9 -31 -32 -39 -50 -8 -19 -21
-34 -29 -34 -8 0 -20 -16 -26 -36 -8 -22 -40 -63 -81 -104 -38 -37 -69 -72
-69 -78 0 -6 -11 -19 -25 -28 -13 -9 -27 -25 -31 -36 -3 -11 -19 -24 -35 -30
-15 -5 -31 -18 -34 -29 -4 -11 -18 -27 -31 -36 -14 -9 -32 -29 -40 -44 -8 -16
-20 -29 -28 -29 -7 0 -18 -11 -25 -24 -7 -13 -28 -30 -46 -39 -18 -9 -36 -24
-39 -35 -4 -10 -17 -25 -31 -32 -14 -7 -32 -24 -40 -37 -9 -13 -33 -30 -55
-39 -21 -9 -46 -27 -55 -40 -8 -13 -24 -24 -35 -24 -11 0 -24 -9 -30 -20 -6
-11 -27 -28 -48 -39 -20 -10 -45 -28 -56 -40 -10 -11 -34 -23 -53 -27 -18 -3
-39 -14 -46 -24 -6 -9 -32 -29 -57 -45 -25 -15 -49 -34 -53 -41 -4 -7 -30 -20
-57 -28 -27 -8 -59 -24 -72 -35 -12 -12 -32 -21 -45 -21 -28 0 -74 -22 -92
-44 -8 -9 -32 -21 -55 -27 -22 -6 -52 -21 -66 -34 -16 -15 -49 -28 -90 -36
-39 -7 -76 -22 -93 -36 -19 -15 -41 -23 -66 -23 -25 0 -50 -9 -72 -25 -19 -14
-53 -34 -77 -46 -24 -11 -46 -27 -49 -35 -3 -8 -19 -22 -35 -30 -16 -8 -34
-26 -40 -39 -6 -14 -15 -25 -20 -25 -13 0 -108 -95 -108 -108 0 -7 -13 -18
-28 -26 -15 -8 -34 -26 -42 -40 -7 -14 -18 -26 -23 -26 -5 0 -31 -23 -58 -51
-67 -71 -67 -98 2 -159 29 -25 66 -60 84 -78 17 -18 45 -36 61 -41 44 -12 207
15 271 45 39 19 77 27 136 31 88 6 117 15 117 38 0 14 57 35 98 35 12 0 32 11
44 25 12 14 37 27 57 31 61 10 105 26 126 45 11 10 44 21 73 25 29 4 59 13 65
20 7 7 18 20 25 29 7 8 30 18 52 21 22 4 49 17 61 30 15 16 38 26 70 30 34 5
55 14 75 35 18 18 43 32 67 36 27 4 42 13 49 29 6 12 25 28 42 35 17 7 42 22
56 34 14 12 39 26 55 29 17 4 44 21 60 38 50 50 129 108 147 108 10 0 24 10
32 23 8 12 31 31 51 41 19 11 35 24 35 30 0 6 14 19 31 29 17 9 33 25 36 35 3
11 24 26 53 36 27 10 52 26 55 35 3 10 21 25 40 34 19 9 35 24 35 32 0 9 16
25 35 36 19 12 35 26 35 33 0 7 15 18 34 24 23 9 38 22 44 41 6 16 19 32 30
35 11 4 23 18 26 32 4 13 18 30 31 36 14 6 27 20 31 30 3 11 21 26 40 34 29
12 34 19 34 49 0 30 10 44 65 99 36 35 65 69 65 75 0 7 11 23 25 37 14 14 34
42 45 64 11 21 24 42 30 45 6 3 19 24 31 46 11 22 31 45 44 51 14 6 25 20 25
30 0 25 17 57 46 87 13 13 24 34 24 47 0 13 9 29 21 36 11 7 29 34 41 60 11
26 30 54 43 62 17 11 24 28 29 75 5 42 13 67 27 80 11 10 26 41 33 67 8 32 19
52 33 58 15 7 23 26 33 75 7 36 23 80 35 97 14 19 26 53 30 89 8 61 28 119 44
129 5 4 15 32 21 64 6 31 13 67 16 79 2 12 13 31 24 41 24 22 40 100 40 191 0
50 6 79 26 121 25 53 26 64 34 332 4 152 10 280 13 285 24 38 28 215 10 399
-7 66 -17 225 -23 354 -9 214 -12 238 -35 289 -20 45 -27 83 -34 194 -9 127
-12 140 -34 163 -20 20 -26 38 -31 105 -7 71 -11 83 -35 105 -26 23 -29 32
-35 122 -6 83 -10 100 -31 122 -19 20 -26 43 -34 110 -6 46 -11 87 -11 91 0 4
-11 10 -25 13 -24 6 -25 10 -25 76 0 66 1 70 25 76 16 4 28 17 35 38 6 19 21
38 35 44 19 9 25 19 25 43 0 25 9 41 40 69 22 20 40 44 40 53 0 9 11 19 25 23
18 4 28 16 35 45 6 21 22 51 35 67 13 16 29 41 35 56 5 14 21 31 36 36 14 6
28 19 31 31 3 11 18 26 33 34 17 9 30 25 33 44 5 25 12 31 43 37 23 4 38 13
41 25 10 37 51 30 65 -13 2 -4 35 -11 73 -14 122 -9 132 -12 139 -39 6 -25 8
-25 116 -25 65 0 110 4 110 10 0 18 47 41 105 50 40 6 67 18 85 35 33 32 102
35 122 7 7 -11 23 -24 36 -31 13 -7 28 -26 34 -42 6 -18 17 -29 28 -29 30 0
91 -63 99 -101 4 -23 13 -35 26 -38 28 -5 45 -21 45 -42 0 -14 7 -19 25 -19
16 0 31 -10 42 -27 10 -16 28 -36 40 -46 13 -10 23 -27 23 -38 0 -12 12 -24
34 -33 19 -8 37 -23 40 -34 4 -11 18 -23 31 -26 15 -4 27 -16 31 -32 3 -13 19
-31 35 -40 18 -9 29 -23 29 -35 0 -14 10 -25 30 -32 18 -7 33 -21 36 -34 4
-13 18 -29 33 -36 24 -11 26 -18 29 -84 3 -68 1 -74 -26 -103 -23 -23 -31 -44
-37 -87 -8 -69 -20 -102 -43 -119 -15 -11 -17 -33 -17 -172 0 -153 1 -160 22
-178 23 -19 43 -93 43 -160 0 -23 7 -38 26 -53 31 -24 45 -79 37 -140 -5 -36
-12 -47 -40 -63 -18 -11 -33 -26 -33 -34 0 -7 -15 -20 -34 -28 -19 -8 -37 -24
-41 -35 -3 -12 -15 -26 -26 -32 -11 -5 -24 -21 -29 -35 -5 -13 -21 -29 -35
-34 -14 -5 -30 -21 -35 -34 -5 -13 -18 -27 -30 -31 -11 -3 -27 -19 -35 -35 -8
-16 -24 -32 -36 -35 -11 -4 -25 -20 -31 -35 -6 -18 -18 -30 -31 -32 -12 -2
-28 -16 -35 -31 -8 -15 -24 -32 -36 -37 -15 -5 -25 -20 -30 -40 -3 -19 -13
-34 -25 -37 -10 -2 -23 -15 -29 -28 -7 -15 -21 -25 -39 -27 -19 -2 -32 -12
-41 -31 -7 -15 -26 -34 -42 -42 -16 -8 -31 -23 -34 -33 -6 -18 -57 -42 -89
-42 -9 0 -17 -6 -17 -14 0 -25 -53 -34 -230 -40 -96 -4 -179 -11 -184 -16 -6
-6 -10 -87 -11 -198 0 -172 -2 -190 -21 -223 -17 -28 -23 -61 -29 -155 -4 -65
-11 -128 -15 -140 -10 -26 16 -44 67 -44 56 -1 113 -16 126 -34 10 -14 48 -18
248 -24 l237 -8 32 -27 c21 -18 43 -27 68 -27 67 -1 126 -17 144 -40 14 -17
37 -25 96 -34 88 -14 112 -23 112 -41 0 -8 21 -15 58 -19 65 -7 74 -12 91 -43
7 -15 21 -23 37 -23 37 0 94 -27 94 -44 0 -10 15 -17 48 -21 77 -10 88 -14
113 -38 13 -13 41 -30 62 -37 23 -7 42 -21 47 -35 5 -14 20 -24 39 -28 17 -4
45 -20 62 -37 21 -19 42 -30 61 -30 21 0 31 -6 38 -24 5 -15 26 -32 54 -44 24
-11 49 -29 55 -40 6 -11 24 -25 41 -30 17 -7 34 -22 40 -36 7 -19 17 -26 36
-26 19 0 28 -7 37 -30 8 -20 19 -30 37 -32 18 -2 27 -11 34 -35 7 -24 16 -33
35 -35 20 -2 27 -10 29 -29 2 -20 11 -29 35 -36 21 -6 33 -16 35 -30 2 -12 14
-29 28 -37 13 -9 24 -24 24 -34 0 -9 11 -28 25 -42 56 -58 96 -110 111 -145 9
-21 27 -47 40 -57 13 -11 24 -28 24 -38 0 -25 28 -46 42 -32 18 18 -1 82 -32
111 -20 17 -31 40 -36 69 -5 29 -14 48 -30 58 -13 9 -28 32 -35 52 -7 20 -22
45 -35 55 -13 10 -26 33 -30 53 -4 23 -15 40 -35 51 -24 14 -29 24 -31 67 -3
44 -7 53 -31 64 -15 8 -32 25 -37 38 -5 13 -20 28 -34 33 -13 5 -28 23 -34 39
-5 16 -22 42 -37 57 -14 16 -29 41 -32 56 -3 15 -15 31 -29 37 -12 6 -30 25
-39 42 -8 16 -22 30 -31 30 -8 0 -20 14 -26 31 -6 17 -21 34 -35 40 -14 5 -27
18 -30 30 -3 11 -18 26 -34 34 -15 8 -30 24 -34 35 -4 11 -19 27 -35 35 -16 8
-31 24 -35 35 -4 11 -20 27 -36 35 -16 9 -29 21 -29 28 0 7 -13 21 -29 30 -17
10 -32 26 -36 36 -3 11 -19 24 -35 30 -17 5 -35 21 -41 35 -7 14 -23 28 -38
31 -15 3 -44 21 -66 40 -21 19 -44 35 -51 35 -6 0 -19 11 -27 23 -9 13 -29 30
-46 37 -17 6 -33 21 -36 31 -4 10 -18 24 -33 31 -15 7 -28 22 -31 33 -4 26
-15 32 -68 40 -29 4 -48 14 -58 29 -9 13 -33 28 -56 35 -22 7 -52 25 -66 42
-14 16 -34 29 -44 29 -10 0 -25 13 -34 29 -8 17 -27 36 -42 43 -27 13 -28 17
-31 94 -3 79 -2 81 28 108 18 15 36 41 42 56 5 16 19 32 29 35 11 4 24 17 29
31 5 13 21 26 35 30 19 5 28 15 32 36 4 19 15 33 29 39 13 4 24 15 24 22 0 22
72 93 105 104 22 7 33 19 43 48 7 22 27 54 45 71 81 79 157 165 157 178 0 20
22 35 61 42 19 4 39 11 46 16 7 5 14 5 18 -2 3 -5 25 -10 48 -10 59 0 113 -17
140 -44 17 -17 39 -24 91 -29 53 -5 77 -13 104 -34 33 -25 42 -27 141 -27 102
-1 107 0 144 28 31 24 50 30 110 34 64 4 75 8 97 34 20 22 36 30 77 35 37 4
53 10 56 23 3 10 21 26 41 35 20 10 36 24 36 31 0 8 4 14 9 14 5 0 33 20 61
44 29 25 65 48 80 51 23 5 29 13 34 47 4 27 17 50 36 68 22 21 30 37 30 62 0
27 8 42 34 65 32 30 34 36 40 120 8 96 24 163 38 163 14 0 4 115 -14 180 -9
30 -19 95 -23 144 -7 79 -11 92 -37 119 -15 17 -31 42 -34 56 -3 14 -7 36 -10
48 -2 12 -12 24 -23 28 -13 4 -22 23 -31 65 -9 44 -17 60 -29 60 -16 0 -55 29
-125 94 -17 15 -46 35 -65 43 -18 8 -35 23 -38 33 -5 20 -13 23 -71 35 -18 4
-46 19 -63 35 -23 20 -44 29 -82 33 -40 3 -55 10 -73 32 l-22 28 -168 -1
c-163 -2 -168 -3 -193 -26 -19 -17 -46 -27 -94 -35 -52 -7 -75 -16 -94 -36
-28 -27 -38 -30 -121 -40 -69 -8 -125 8 -147 42 -10 15 -40 48 -67 74 -28 26
-55 52 -61 59 -7 6 -25 23 -41 38 -15 15 -37 44 -48 65 -10 21 -33 46 -49 55
-17 9 -72 58 -123 107 -51 50 -106 102 -122 116 -16 14 -47 48 -69 74 -22 26
-50 57 -61 69 -12 12 -26 38 -32 58 -8 31 -7 39 7 52 10 9 22 16 28 16 13 0
23 24 23 54 0 12 13 43 30 68 l30 45 1 231 2 231 -28 41 c-16 22 -31 57 -34
78 -5 27 -14 40 -34 50 -25 12 -31 25 -39 77 -2 11 -14 25 -26 30 -14 6 -26
22 -29 38 -4 19 -16 34 -37 44 -18 8 -36 24 -42 36 -5 12 -20 24 -34 27 -16 4
-26 14 -28 28 -2 14 -13 24 -30 28 -83 18 -109 28 -133 49 -20 16 -50 25 -115
33 -49 7 -94 18 -104 27 -22 20 -128 20 -156 1z m2329 -2242 c11 -11 -3 -24
-18 -18 -8 4 -12 10 -9 15 6 11 18 12 27 3z m67 -149 c0 -8 -4 -15 -10 -15 -5
0 -10 7 -10 15 0 8 5 15 10 15 6 0 10 -7 10 -15z m0 -116 c0 -29 -2 -31 -27
-24 -38 9 -53 25 -25 25 13 0 25 7 28 15 10 26 24 16 24 -16z"/>
<path d="M9873 14585 c-9 -19 -20 -35 -25 -35 -4 0 -19 -23 -32 -51 -14 -27
-36 -59 -50 -70 -14 -11 -26 -27 -26 -34 0 -8 -13 -21 -30 -30 -16 -9 -30 -22
-30 -31 0 -12 -35 -55 -80 -98 -7 -6 -29 -28 -49 -48 -20 -21 -41 -38 -47 -38
-5 0 -15 -15 -22 -32 -11 -31 -86 -118 -101 -118 -4 0 -15 -14 -25 -31 -10
-16 -33 -47 -52 -67 -79 -84 -149 -152 -156 -152 -4 0 -8 -5 -8 -11 0 -12
-180 -189 -192 -189 -4 0 -8 -5 -8 -11 0 -6 -32 -43 -71 -82 -112 -114 -100
-101 -151 -161 -18 -22 -46 -53 -63 -70 -16 -17 -36 -43 -44 -58 -8 -16 -18
-28 -23 -28 -4 0 -19 -18 -33 -41 -15 -22 -55 -69 -91 -104 -35 -35 -64 -70
-64 -78 0 -7 -11 -23 -25 -35 -14 -12 -25 -28 -25 -35 0 -8 -11 -19 -24 -27
-14 -7 -30 -26 -37 -42 -7 -17 -27 -48 -45 -69 -18 -22 -35 -48 -39 -58 -3
-10 -17 -23 -30 -29 -15 -7 -25 -20 -25 -32 0 -12 -11 -31 -25 -44 -14 -13
-32 -40 -40 -60 -8 -20 -24 -42 -35 -48 -11 -7 -27 -34 -35 -59 -9 -25 -27
-57 -40 -69 -14 -13 -25 -29 -25 -36 0 -7 -16 -25 -35 -40 -30 -23 -35 -32
-35 -69 0 -31 -7 -52 -24 -72 -13 -15 -30 -48 -37 -72 -7 -25 -24 -52 -40 -63
-18 -13 -29 -33 -33 -59 -3 -21 -17 -50 -31 -65 -25 -27 -29 -36 -40 -105 -3
-19 -14 -45 -25 -57 -11 -12 -27 -51 -36 -88 -9 -41 -23 -73 -35 -83 -15 -12
-24 -39 -34 -110 -8 -51 -24 -113 -35 -137 -14 -27 -25 -78 -30 -138 -5 -51
-11 -98 -12 -102 -6 -19 44 -82 75 -94 17 -8 44 -26 59 -42 15 -15 36 -28 48
-28 27 0 58 -16 89 -46 13 -13 30 -24 38 -24 7 0 26 -11 41 -25 85 -78 107
-94 133 -100 37 -8 43 -4 68 48 22 45 40 154 41 241 0 51 18 116 32 116 10 0
38 96 38 130 0 16 11 35 29 51 24 21 29 35 35 91 5 43 15 76 27 92 11 14 27
51 35 82 8 34 25 67 39 80 14 13 25 34 25 48 0 16 15 42 36 66 24 27 38 52 41
80 3 22 16 50 28 62 12 13 25 35 29 50 3 15 19 42 34 60 15 18 35 50 45 71 9
20 21 37 26 37 6 0 18 23 28 51 10 28 28 58 41 66 12 9 22 22 22 29 0 8 16 30
35 50 19 19 35 40 35 47 0 7 15 31 33 54 17 23 40 54 50 68 10 14 24 25 32 25
8 0 15 7 15 16 0 8 14 29 30 46 17 17 37 45 44 63 12 28 65 90 166 194 14 14
33 38 43 54 10 15 24 27 32 27 9 0 20 11 25 25 5 14 13 25 18 25 15 0 47 34
60 63 6 15 16 27 22 27 5 0 17 14 26 31 16 33 89 109 103 109 4 0 22 22 39 48
17 27 72 91 122 143 49 52 103 108 118 126 15 18 33 38 40 45 30 28 61 62 87
92 14 17 33 39 41 49 10 11 30 17 59 17 49 0 75 -23 95 -85 7 -21 19 -35 34
-39 29 -7 95 -73 102 -103 3 -12 15 -25 25 -28 11 -4 26 -22 34 -41 8 -19 19
-34 26 -34 16 0 89 -79 100 -108 5 -12 20 -27 34 -32 14 -5 30 -21 35 -35 5
-14 21 -30 35 -35 14 -5 30 -21 35 -34 5 -13 18 -27 29 -31 12 -3 21 -11 21
-16 0 -5 33 -43 73 -84 95 -100 157 -170 157 -179 0 -11 27 -36 39 -36 6 0 11
-4 11 -9 0 -5 18 -27 40 -50 22 -22 40 -48 40 -56 0 -8 9 -19 21 -25 11 -7 27
-27 35 -45 7 -18 23 -36 34 -40 11 -3 20 -11 20 -16 0 -6 18 -28 40 -50 31
-31 40 -47 40 -74 0 -27 5 -37 27 -47 15 -7 32 -22 38 -33 5 -11 22 -32 37
-46 14 -15 32 -44 38 -66 7 -23 21 -43 34 -49 12 -5 22 -20 24 -36 2 -17 15
-36 33 -48 19 -14 33 -36 40 -65 7 -27 18 -45 29 -48 11 -3 24 -24 34 -58 9
-30 27 -65 41 -78 14 -13 25 -32 25 -43 0 -11 14 -36 30 -55 17 -18 30 -42 30
-52 0 -34 21 -79 39 -84 20 -5 31 -45 31 -113 0 -42 5 -51 44 -77 11 -9 20
-30 23 -60 4 -34 13 -55 34 -75 25 -24 30 -39 38 -115 7 -61 16 -95 31 -115
18 -24 23 -50 30 -171 8 -152 14 -168 60 -171 41 -3 48 -1 55 19 3 10 27 28
53 39 26 12 52 29 59 40 6 11 25 22 42 25 18 4 34 15 38 24 10 28 35 42 71 43
24 0 42 8 60 28 15 16 48 35 74 42 43 13 47 17 59 58 15 53 -2 159 -28 179
-18 14 -32 72 -33 134 0 50 -15 105 -36 129 -7 8 -20 48 -29 88 -9 40 -27 85
-39 100 -13 15 -29 55 -36 90 -7 34 -17 62 -22 62 -12 0 -38 64 -38 95 0 14
-16 48 -35 76 -19 28 -35 59 -35 69 0 10 -11 27 -24 37 -13 11 -31 41 -41 68
-9 27 -25 55 -35 62 -11 8 -24 31 -30 52 -5 21 -23 52 -40 69 -16 18 -30 38
-30 46 0 8 -10 23 -23 33 -12 10 -31 38 -42 63 -11 25 -25 49 -32 53 -8 5 -23
28 -34 53 -12 24 -27 44 -34 44 -7 0 -18 14 -26 31 -7 18 -22 43 -34 58 -12
14 -26 37 -30 51 -4 14 -36 54 -72 89 -39 39 -66 75 -70 93 -3 16 -16 36 -28
44 -13 8 -28 28 -35 43 -6 16 -22 33 -36 39 -13 7 -24 15 -24 20 0 14 -36 52
-49 52 -6 0 -11 5 -11 11 0 6 -16 27 -35 47 -117 123 -151 162 -175 200 -26
40 -45 62 -93 109 -69 68 -107 109 -107 117 0 12 -106 116 -119 116 -6 0 -11
7 -11 14 0 8 -16 27 -35 42 -19 14 -35 30 -35 35 0 11 -88 97 -112 110 -10 5
-18 15 -18 21 0 7 -45 55 -100 108 -55 53 -100 101 -100 106 0 6 -31 41 -70
78 -38 38 -70 75 -70 83 0 7 -18 33 -40 56 -73 77 -86 92 -100 120 -7 15 -19
27 -25 27 -7 0 -18 14 -25 30 -14 34 -73 90 -96 90 -8 0 -22 -16 -31 -35z"/>
<path d="M5131 13452 c-28 -32 -43 -61 -51 -96 -6 -28 -20 -60 -31 -72 -14
-15 -26 -49 -34 -99 -9 -50 -21 -85 -34 -99 -12 -12 -25 -44 -30 -72 -12 -61
-21 -84 -32 -84 -18 0 -39 -61 -39 -112 0 -37 -7 -67 -24 -98 -13 -25 -29 -79
-36 -120 -15 -98 -29 -150 -39 -150 -15 0 -31 -51 -31 -99 0 -51 -26 -151 -39
-151 -20 0 -31 -88 -31 -246 -1 -130 -5 -191 -21 -264 -33 -159 -41 -288 -36
-590 5 -262 7 -294 31 -395 22 -94 26 -133 26 -267 0 -150 13 -248 33 -248 16
0 37 -70 37 -123 0 -41 6 -63 24 -90 17 -25 30 -67 41 -130 9 -51 27 -115 40
-142 14 -27 25 -64 25 -82 0 -37 15 -73 36 -86 8 -4 21 -34 30 -65 9 -31 27
-69 39 -84 14 -16 26 -48 30 -78 5 -38 13 -55 31 -67 15 -10 29 -32 36 -61 6
-26 23 -55 40 -70 15 -14 28 -33 28 -42 0 -10 11 -28 24 -41 13 -14 28 -42 32
-64 4 -23 19 -51 33 -65 15 -14 35 -38 45 -55 11 -16 27 -36 37 -43 10 -6 20
-26 24 -42 4 -17 16 -36 27 -43 11 -7 30 -33 43 -58 13 -25 31 -51 40 -59 9
-7 23 -27 32 -44 9 -17 26 -39 39 -49 13 -10 24 -24 24 -30 0 -6 11 -23 25
-37 14 -14 36 -36 49 -50 13 -14 30 -30 38 -36 15 -13 68 -73 113 -127 17 -20
45 -44 63 -54 17 -10 35 -26 38 -35 3 -10 9 -18 14 -18 5 0 21 -12 35 -27 14
-16 30 -32 36 -38 6 -5 23 -22 38 -36 14 -14 41 -34 59 -43 17 -9 32 -21 32
-26 0 -5 15 -17 33 -26 17 -9 47 -30 66 -46 18 -16 44 -33 57 -38 13 -5 24
-17 24 -25 0 -9 17 -24 38 -33 38 -17 65 -36 148 -104 25 -21 54 -38 64 -38
10 0 25 -9 32 -19 8 -11 34 -27 58 -37 25 -10 53 -28 62 -40 10 -12 38 -27 62
-33 25 -6 49 -17 53 -24 15 -25 58 -47 90 -47 20 0 41 -8 54 -21 11 -11 42
-28 67 -36 26 -9 58 -26 72 -38 14 -12 48 -28 75 -34 28 -7 64 -21 81 -32 18
-11 58 -24 90 -30 41 -8 65 -19 80 -35 14 -17 37 -27 74 -33 39 -6 60 -16 76
-35 20 -23 33 -26 128 -35 75 -8 122 -18 159 -35 34 -16 89 -29 159 -37 105
-12 109 -12 138 9 16 12 32 22 36 22 3 0 15 11 25 24 11 14 28 28 39 31 11 4
20 12 20 19 0 7 10 24 23 38 39 41 15 84 -119 218 -168 167 -321 310 -333 310
-6 0 -18 8 -28 19 -21 21 -75 41 -112 41 -14 0 -42 10 -61 22 -19 12 -67 29
-107 39 -40 9 -82 26 -94 38 -12 11 -34 23 -49 26 -15 3 -51 22 -81 40 -31 21
-66 35 -84 35 -20 0 -42 10 -62 29 -18 16 -48 31 -72 35 -27 4 -46 14 -56 30
-9 13 -29 29 -45 36 -16 7 -36 22 -44 35 -10 15 -30 26 -58 30 -28 5 -56 19
-81 41 -20 19 -43 34 -50 34 -7 0 -27 12 -44 28 -17 15 -53 44 -79 64 -97 73
-143 113 -149 131 -4 9 -21 25 -38 34 -57 29 -138 106 -159 150 -11 24 -26 43
-34 43 -12 0 -42 28 -140 130 -13 14 -24 30 -24 35 0 5 -17 26 -37 47 -59 58
-86 90 -107 123 -10 16 -22 32 -26 35 -4 3 -20 25 -35 50 -16 24 -34 51 -42
58 -7 8 -20 27 -28 43 -9 15 -24 33 -35 39 -15 8 -20 21 -20 49 0 28 -7 45
-26 65 -15 14 -31 26 -35 26 -5 0 -9 6 -9 13 0 8 -16 36 -35 63 -19 27 -35 58
-35 69 0 20 -25 64 -42 76 -5 3 -13 34 -19 69 -11 73 -22 95 -49 110 -14 8
-20 21 -20 48 0 20 -9 53 -19 72 -37 67 -43 85 -51 155 -5 39 -20 95 -33 125
-17 36 -29 88 -35 150 -7 61 -19 115 -35 150 -22 49 -26 80 -38 275 -16 262
-16 556 1 830 10 174 15 207 36 254 17 38 27 85 34 161 9 111 17 158 30 175
17 23 31 86 39 180 7 73 15 106 30 126 12 16 26 59 33 100 9 55 18 80 41 106
16 18 35 33 42 33 7 0 15 5 17 10 2 6 20 2 43 -10 21 -11 56 -20 76 -20 25 0
47 -9 72 -29 28 -22 50 -29 99 -34 64 -6 84 -12 148 -47 19 -11 50 -19 68 -20
21 0 42 -9 58 -25 13 -13 43 -29 67 -35 23 -6 49 -13 58 -16 9 -2 21 -16 27
-29 10 -21 19 -25 52 -25 42 0 100 -23 100 -40 0 -5 18 -15 40 -21 21 -7 51
-25 64 -40 14 -15 43 -33 64 -38 21 -6 49 -22 61 -35 13 -14 36 -28 51 -31 15
-3 37 -17 49 -30 11 -14 25 -25 30 -25 5 0 30 -18 57 -40 26 -21 60 -42 75
-45 16 -4 31 -15 34 -25 3 -10 20 -24 38 -30 18 -5 61 -38 97 -71 36 -33 77
-67 93 -75 15 -8 27 -21 27 -28 0 -28 33 -27 64 1 50 46 55 56 56 109 0 38 6
59 22 80 13 15 30 49 39 75 9 26 26 56 38 68 12 12 24 35 27 51 4 16 19 43 35
61 15 17 31 45 34 61 6 27 2 35 -41 74 -27 24 -54 44 -60 44 -7 0 -14 7 -18
15 -3 9 -21 24 -39 35 -19 11 -40 31 -47 45 -10 18 -25 27 -52 31 -23 4 -46
16 -57 30 -10 13 -31 29 -47 36 -16 7 -37 22 -46 34 -10 12 -30 24 -46 27 -16
3 -48 22 -71 41 -24 20 -53 36 -66 36 -12 0 -33 11 -46 24 -13 13 -38 31 -56
40 -18 9 -37 25 -42 35 -7 12 -31 22 -70 30 -36 7 -72 22 -90 37 -16 13 -53
32 -81 40 -28 8 -53 21 -56 28 -3 7 -24 19 -47 27 -23 7 -58 23 -77 35 -19 13
-68 30 -107 39 -40 9 -75 21 -79 26 -8 14 -73 39 -100 39 -26 0 -74 19 -74 30
0 13 -53 31 -114 37 -37 3 -77 15 -102 30 -28 16 -69 27 -123 33 -49 6 -101
19 -135 35 -32 15 -85 29 -129 34 -43 5 -91 18 -113 30 -22 11 -58 25 -81 30
-40 8 -42 8 -82 -37z"/>
<path d="M9886 11812 c-3 -10 -10 -50 -15 -89 -6 -46 -16 -81 -30 -100 -15
-19 -24 -50 -27 -89 -8 -100 -14 -124 -35 -145 -12 -12 -25 -45 -31 -82 -12
-63 -30 -97 -55 -97 -7 0 -13 -4 -13 -9 0 -5 -16 -15 -36 -21 -27 -9 -103 -11
-293 -5 -228 6 -258 5 -270 -9 -17 -21 -8 -44 23 -56 13 -5 27 -18 30 -28 4
-11 28 -29 54 -41 78 -35 130 -70 152 -102 12 -16 27 -29 35 -29 8 0 23 -13
35 -30 12 -16 30 -30 40 -30 25 0 79 -47 92 -79 16 -44 0 -136 -32 -175 -23
-30 -28 -48 -34 -123 -5 -65 -13 -99 -30 -128 -13 -22 -27 -65 -31 -95 -4 -33
-16 -67 -31 -86 -27 -36 -23 -44 22 -44 25 0 38 7 54 29 11 17 29 33 40 36 10
3 22 15 25 25 3 10 14 22 24 25 11 3 35 21 56 40 23 23 46 35 64 35 15 0 36 9
47 20 10 11 25 26 33 33 8 6 29 27 47 45 77 76 170 80 248 11 24 -21 49 -39
55 -39 5 0 22 -16 37 -35 16 -22 35 -35 49 -35 12 0 30 -9 40 -20 10 -12 35
-30 54 -42 20 -13 44 -33 54 -45 10 -13 24 -23 30 -23 7 0 26 -17 43 -37 29
-35 33 -37 59 -25 25 12 26 14 13 35 -8 12 -18 40 -22 62 -4 22 -18 58 -31 80
-12 22 -30 78 -39 124 -8 46 -23 92 -32 102 -8 9 -20 48 -25 86 -4 37 -13 83
-18 101 -15 51 10 105 62 136 23 13 50 33 61 44 10 12 31 24 48 27 18 4 33 16
38 31 5 13 21 29 34 34 13 5 32 18 43 29 10 10 38 27 63 37 25 10 51 26 58 36
7 10 26 25 42 33 29 15 32 39 6 58 -6 4 -134 7 -283 6 -216 -1 -276 1 -289 12
-9 7 -26 18 -38 24 -12 6 -28 30 -36 55 -9 25 -24 58 -35 73 -10 16 -22 56
-27 89 -4 33 -15 72 -23 87 -31 57 -37 79 -42 156 -6 77 -7 81 -46 118 -45 42
-53 45 -61 19z"/>
<path d="M5682 11159 c-20 -18 -22 -28 -18 -72 3 -29 11 -153 17 -277 10 -199
14 -231 34 -275 19 -41 24 -74 29 -184 4 -96 10 -140 21 -155 8 -11 22 -31 30
-42 9 -12 18 -45 22 -73 4 -35 15 -63 34 -88 18 -23 31 -53 35 -84 4 -29 16
-60 30 -76 12 -15 26 -44 29 -66 5 -25 19 -50 41 -72 24 -24 34 -43 34 -65 0
-23 6 -33 24 -42 14 -6 30 -23 36 -39 7 -15 23 -35 36 -44 13 -8 24 -22 24
-29 0 -8 20 -19 49 -26 27 -6 59 -22 71 -35 12 -13 36 -27 52 -30 16 -4 36
-17 44 -30 8 -13 32 -30 52 -38 20 -8 47 -26 59 -40 15 -17 37 -28 68 -33 33
-4 51 -13 62 -30 8 -13 21 -24 28 -24 6 0 28 -18 49 -40 23 -25 46 -40 61 -40
13 0 40 -15 61 -35 20 -19 44 -35 53 -35 8 0 24 -9 36 -20 41 -41 118 -101
146 -115 16 -9 29 -20 29 -25 0 -5 18 -19 40 -30 21 -11 44 -29 50 -39 5 -11
19 -23 30 -26 11 -4 27 -19 35 -35 11 -21 25 -31 50 -36 22 -4 48 -20 67 -40
18 -19 37 -34 43 -34 6 0 21 -13 33 -30 13 -16 29 -30 37 -30 8 0 22 -11 31
-25 9 -14 28 -31 43 -38 14 -6 30 -22 36 -35 5 -12 17 -24 26 -27 9 -3 28 -19
43 -35 14 -17 31 -30 37 -30 6 0 31 -18 56 -40 25 -22 52 -40 59 -40 7 0 18
-8 23 -17 15 -28 106 -123 117 -123 6 0 17 -11 24 -25 7 -14 16 -25 20 -25 5
0 61 -54 125 -120 6 -5 30 -28 55 -50 59 -53 57 -51 81 -82 11 -16 27 -28 34
-28 8 0 17 -9 20 -20 4 -11 21 -28 38 -36 43 -23 86 -67 99 -104 7 -22 18 -33
40 -37 16 -3 34 -13 41 -23 7 -9 22 -22 35 -29 12 -6 22 -18 22 -25 0 -7 14
-25 30 -39 17 -15 30 -34 30 -42 0 -8 17 -26 38 -39 20 -13 51 -40 67 -60 17
-20 39 -45 50 -57 11 -11 27 -27 35 -36 20 -21 37 -37 84 -76 21 -17 45 -47
53 -65 7 -18 24 -37 36 -41 12 -5 40 -27 62 -50 22 -23 55 -57 73 -75 17 -18
32 -38 32 -44 0 -6 12 -18 28 -26 32 -17 90 -72 114 -108 10 -15 27 -29 38
-33 11 -3 20 -11 20 -17 0 -7 28 -38 61 -69 34 -32 67 -68 73 -81 6 -13 24
-29 39 -36 15 -7 27 -20 27 -28 0 -8 11 -20 25 -26 14 -6 25 -15 25 -19 0 -11
772 -799 783 -799 4 0 106 -101 172 -170 6 -5 30 -28 55 -51 25 -22 50 -45 55
-50 79 -81 329 -326 357 -351 20 -18 44 -46 53 -61 9 -16 31 -35 48 -42 18 -7
40 -22 49 -32 10 -10 40 -36 67 -58 27 -22 54 -50 61 -62 7 -12 23 -24 35 -27
13 -3 43 -24 67 -46 23 -22 59 -53 78 -70 19 -17 52 -47 72 -66 21 -19 41 -34
46 -34 5 0 23 -12 40 -27 17 -16 54 -46 82 -68 28 -22 67 -55 85 -73 19 -17
40 -32 45 -32 12 0 67 -42 128 -98 20 -17 44 -32 53 -32 9 0 36 -16 60 -35 24
-19 49 -35 55 -35 6 0 19 -9 30 -21 10 -12 40 -32 65 -44 25 -13 51 -31 58
-39 7 -9 32 -21 55 -27 22 -6 50 -19 61 -30 11 -10 40 -25 64 -34 24 -8 52
-26 62 -39 13 -17 37 -28 73 -36 30 -6 62 -20 71 -30 11 -12 38 -22 67 -26 34
-5 54 -14 67 -30 11 -14 38 -28 67 -35 27 -6 59 -22 71 -35 19 -20 37 -26 120
-34 66 -7 106 -16 123 -28 40 -29 58 -33 185 -42 66 -5 166 -18 223 -29 114
-23 338 -29 373 -10 32 17 178 39 259 39 59 0 87 6 128 25 38 17 89 29 174 39
108 12 123 16 144 40 15 15 36 26 51 26 32 0 93 21 93 32 0 12 37 28 92 38 28
6 62 20 74 31 12 11 42 23 66 26 30 4 54 15 78 38 19 17 54 38 77 45 23 7 44
18 47 25 2 6 29 24 60 39 31 15 56 31 56 36 0 5 16 14 35 20 19 6 44 25 56 41
11 16 26 29 32 29 7 0 27 13 45 30 18 16 45 33 60 37 26 6 122 96 122 113 0 5
10 15 23 21 12 7 34 24 49 38 15 14 34 33 43 41 9 8 53 54 99 103 46 48 88 87
94 87 6 0 14 10 18 22 9 28 84 117 105 123 8 3 23 28 33 56 10 28 25 53 32 56
8 3 21 20 29 38 9 17 27 38 40 45 15 8 25 22 25 34 0 12 18 43 40 70 22 26 40
58 40 70 0 12 9 32 21 44 11 13 27 44 36 70 9 26 26 58 38 72 13 14 26 41 30
60 4 19 19 53 35 75 17 26 30 60 35 95 4 30 17 71 30 90 13 19 29 62 36 95 8
41 20 66 36 80 20 16 24 28 21 59 -4 53 -22 56 -38 6 -8 -24 -27 -51 -47 -66
-18 -14 -33 -32 -33 -40 0 -8 -11 -24 -25 -36 -14 -12 -25 -26 -25 -32 0 -6
-23 -31 -51 -56 -28 -25 -60 -54 -70 -65 -84 -89 -197 -195 -207 -195 -5 0
-14 -11 -20 -25 -6 -14 -17 -25 -24 -25 -7 0 -31 -16 -52 -35 -22 -19 -48 -35
-58 -35 -10 0 -30 -13 -44 -29 -14 -16 -39 -35 -54 -41 -16 -7 -36 -22 -44
-34 -7 -12 -34 -28 -57 -35 -24 -7 -55 -23 -69 -36 -14 -12 -43 -25 -65 -28
-22 -4 -47 -15 -55 -25 -21 -25 -47 -38 -94 -46 -22 -4 -55 -18 -75 -32 -21
-14 -50 -24 -71 -24 -65 0 -165 -21 -215 -45 -44 -20 -71 -24 -240 -31 -214
-9 -281 -9 -514 5 -146 8 -166 11 -194 32 -24 18 -52 25 -127 32 -65 6 -111
16 -145 32 -27 14 -76 30 -107 36 -37 8 -69 22 -88 39 -21 18 -47 30 -79 34
-27 4 -60 15 -73 25 -13 10 -47 26 -75 34 -29 9 -62 25 -74 36 -12 11 -35 23
-50 26 -16 4 -41 22 -55 41 -21 26 -34 34 -59 34 -18 0 -47 10 -66 23 -19 12
-48 29 -66 36 -17 7 -40 22 -50 33 -9 11 -32 26 -50 33 -17 7 -39 25 -48 39
-10 15 -30 28 -50 32 -18 3 -47 19 -65 36 -18 16 -44 34 -57 39 -12 4 -23 15
-23 24 0 8 -17 23 -38 34 -21 11 -44 26 -51 34 -6 8 -26 21 -44 28 -18 7 -48
29 -68 48 -79 77 -95 91 -104 91 -21 0 -224 165 -330 268 -33 32 -70 64 -82
71 -13 6 -23 18 -23 26 0 8 -15 21 -32 29 -18 7 -56 36 -83 62 -28 27 -72 66
-97 87 -38 31 -88 77 -233 218 -5 6 -47 47 -93 92 -200 198 -293 287 -302 287
-5 0 -16 13 -25 29 -8 16 -24 32 -35 36 -11 3 -20 11 -20 18 0 10 -54 67 -180
192 -28 28 -75 74 -103 104 -29 29 -60 61 -69 70 -31 29 -128 127 -326 329
-106 108 -216 220 -245 249 -29 28 -56 57 -62 64 -5 6 -55 57 -110 113 -56 55
-110 116 -120 134 -11 17 -23 32 -27 32 -16 0 -295 285 -312 318 -9 17 -22 32
-28 32 -17 0 -144 132 -163 170 -8 16 -23 30 -31 30 -15 0 -61 44 -156 148
-26 29 -51 52 -56 52 -17 0 -82 71 -88 96 -4 15 -21 32 -43 43 -42 22 -157
133 -166 160 -3 10 -19 24 -34 31 -16 6 -60 42 -98 78 -38 37 -89 83 -112 102
-67 55 -151 139 -151 150 0 5 -7 10 -17 10 -9 0 -45 29 -79 65 -35 36 -68 65
-74 65 -5 0 -25 14 -42 30 -18 17 -47 38 -64 46 -18 9 -40 27 -49 40 -8 13
-22 24 -30 24 -8 0 -22 11 -31 25 -9 14 -32 32 -51 40 -19 8 -48 26 -65 40
-16 14 -35 25 -42 25 -7 0 -26 15 -44 33 -17 17 -39 39 -48 48 -9 9 -25 26
-35 38 -11 11 -30 21 -44 21 -13 0 -40 14 -58 30 -19 17 -39 30 -45 30 -6 0
-25 16 -43 35 -19 20 -43 35 -56 35 -12 0 -37 13 -55 29 -18 15 -50 34 -70 40
-21 7 -38 17 -38 22 0 6 -20 19 -44 30 -25 11 -55 33 -66 49 -17 23 -29 30
-56 30 -24 0 -42 8 -57 24 -13 14 -43 32 -67 42 -25 9 -56 28 -71 40 -14 13
-34 24 -46 24 -11 0 -40 16 -64 35 -34 27 -53 35 -86 35 -42 0 -93 17 -93 31
0 7 -67 31 -122 43 -14 3 -39 17 -55 30 -16 13 -49 26 -76 30 -28 4 -57 16
-69 28 -24 24 -74 37 -143 38 -37 0 -60 7 -87 25 -25 17 -67 31 -123 40 -56
10 -94 22 -107 35 -25 23 -49 28 -178 33 -52 3 -102 8 -110 11 -9 4 -25 -2
-38 -15z"/>
<path d="M13955 11149 c-16 -5 -34 -15 -40 -22 -13 -18 -65 -34 -140 -42 -40
-5 -68 -14 -86 -29 -22 -19 -48 -25 -135 -34 -71 -7 -112 -16 -119 -25 -17
-23 -51 -37 -90 -37 -41 0 -74 -15 -93 -41 -7 -10 -37 -23 -70 -30 -34 -7 -66
-21 -80 -34 -16 -17 -39 -25 -87 -30 -55 -6 -68 -11 -85 -34 -14 -21 -31 -30
-61 -34 -25 -3 -52 -15 -68 -31 -14 -13 -46 -29 -71 -35 -29 -6 -51 -19 -63
-35 -10 -14 -26 -26 -35 -26 -43 0 -90 -21 -96 -43 -3 -13 -18 -27 -36 -34
-20 -7 -30 -18 -30 -32 0 -26 -9 -31 -71 -38 -39 -5 -52 -11 -59 -27 -5 -13
-24 -26 -48 -33 -23 -7 -52 -24 -66 -38 -14 -14 -33 -25 -44 -25 -10 0 -31
-13 -46 -29 -15 -16 -47 -34 -72 -41 -27 -8 -46 -20 -49 -31 -4 -11 -19 -26
-34 -34 -16 -8 -36 -25 -45 -39 -9 -15 -23 -26 -30 -26 -7 0 -36 -18 -64 -40
-27 -22 -57 -40 -65 -40 -9 0 -18 -9 -22 -19 -3 -11 -18 -27 -33 -37 -15 -10
-35 -28 -45 -40 -9 -13 -27 -24 -40 -26 -12 -2 -26 -13 -32 -25 -5 -12 -20
-27 -33 -33 -13 -6 -45 -28 -71 -50 -26 -22 -51 -40 -55 -40 -5 0 -17 -11 -28
-25 -11 -14 -28 -25 -38 -25 -10 0 -27 -15 -39 -35 -11 -19 -27 -35 -36 -35
-8 0 -20 -11 -25 -24 -5 -13 -23 -32 -39 -42 -17 -10 -34 -26 -37 -36 -3 -10
-15 -21 -28 -24 -12 -3 -30 -18 -39 -34 -10 -16 -26 -32 -37 -35 -11 -4 -20
-13 -20 -21 0 -15 -15 -31 -74 -79 -20 -16 -67 -60 -105 -96 -38 -38 -83 -72
-104 -78 -20 -7 -39 -21 -42 -31 -11 -34 -127 -143 -168 -159 -15 -6 -37 -27
-51 -48 -14 -21 -39 -49 -56 -63 -37 -31 -125 -118 -165 -166 -16 -19 -46 -43
-65 -52 -31 -15 -35 -22 -38 -60 -3 -33 1 -44 15 -49 26 -10 133 -105 133
-119 0 -6 11 -16 25 -22 15 -7 25 -20 25 -32 0 -14 9 -24 28 -31 15 -5 43 -30
62 -55 19 -26 52 -64 73 -86 20 -21 37 -43 37 -47 0 -5 14 -14 30 -21 17 -7
30 -16 30 -20 0 -4 20 -29 45 -56 25 -26 45 -50 45 -55 0 -4 11 -10 24 -13 14
-3 27 -15 31 -25 3 -10 17 -22 30 -25 13 -3 27 -16 31 -28 9 -28 83 -118 98
-119 6 0 31 -23 56 -50 101 -111 140 -149 153 -149 8 0 19 -11 25 -24 7 -17
25 -29 51 -36 34 -9 44 -7 75 11 20 11 36 25 36 30 0 6 16 17 35 25 20 8 39
22 42 32 9 23 83 92 111 103 12 5 27 20 32 33 5 13 18 27 30 31 11 3 27 20 36
36 8 16 26 34 39 39 14 5 25 16 25 24 0 9 10 21 22 27 13 7 53 43 91 81 38 37
72 68 76 68 4 0 14 11 21 25 7 14 19 25 26 25 6 0 34 21 61 48 28 26 68 63 90
82 22 19 55 47 72 63 17 15 37 27 45 27 7 0 18 11 24 25 6 13 25 31 42 40 16
8 30 22 30 30 0 8 13 21 30 30 16 8 33 21 37 28 4 7 19 21 32 30 31 21 95 74
131 108 15 15 41 30 58 34 20 4 36 16 44 33 7 15 26 33 41 40 16 8 31 20 34
28 3 8 24 23 47 34 22 10 48 28 56 39 8 12 23 21 33 21 16 0 36 16 125 103 31
29 62 46 87 47 11 0 25 10 30 22 6 13 24 26 42 30 18 5 40 19 49 32 8 14 35
34 60 45 25 12 47 28 50 35 3 8 21 17 40 20 19 4 48 20 65 37 17 16 44 33 61
36 19 4 37 17 47 35 14 25 60 48 97 48 7 0 14 9 17 20 3 11 14 20 24 20 33 0
63 29 63 61 0 22 6 32 24 39 16 6 26 20 33 47 5 24 17 42 30 48 22 9 43 44 43
69 0 7 14 27 30 44 21 23 30 42 30 65 0 46 19 97 36 97 8 0 20 23 29 55 9 30
25 61 37 69 22 16 33 56 43 161 5 50 13 77 28 93 17 18 22 42 28 140 10 148
18 193 35 213 20 22 34 115 35 229 0 52 4 133 9 180 5 55 4 89 -2 98 -12 14
-185 16 -233 1z m-322 -414 c1 -5 -15 -11 -35 -13 -41 -3 -53 14 -15 21 31 6
48 4 50 -8z m-133 -126 c0 -11 -4 -18 -10 -14 -5 3 -7 12 -3 20 7 21 13 19 13
-6z m204 5 c20 -8 9 -34 -14 -34 -25 0 -36 20 -19 31 17 11 14 10 33 3z m-56
-65 c2 -11 -12 -19 -49 -28 -45 -12 -53 -11 -67 2 -17 18 -18 18 48 36 45 12
64 10 68 -10z m182 -81 c0 -12 -68 -10 -75 2 -12 20 5 27 40 16 19 -6 35 -14
35 -18z m-1310 2 c0 -6 -11 -21 -23 -33 -13 -12 -27 -34 -30 -49 -4 -14 -25
-45 -47 -68 -22 -23 -40 -46 -40 -51 0 -5 -6 -9 -14 -9 -27 0 -35 60 -14 116
12 33 38 50 88 57 16 3 26 11 28 25 2 16 10 22 28 22 13 0 24 -5 24 -10z m828
-67 c-10 -2 -28 -2 -40 0 -13 2 -5 4 17 4 22 1 32 -1 23 -4z m264 -5 c9 -7 23
-25 32 -39 15 -24 15 -27 -3 -43 -24 -22 -57 -8 -71 30 -22 57 1 84 42 52z
m-217 -104 c32 -21 23 -34 -21 -34 -30 0 -34 3 -34 25 0 29 19 32 55 9z m-128
-69 l37 -16 -31 -19 c-17 -10 -35 -25 -40 -32 -4 -7 -21 -22 -37 -32 -37 -24
-50 -10 -41 44 6 34 13 44 39 56 39 17 30 17 73 -1z m-273 -141 c9 -3 16 -10
16 -15 0 -5 -38 -49 -85 -98 -47 -50 -85 -95 -85 -101 0 -21 -43 -5 -64 23
-20 27 -20 29 -3 58 9 17 17 36 17 42 0 12 59 57 107 82 29 16 70 19 97 9z
m868 -8 c16 -12 16 -14 -9 -25 -21 -10 -29 -9 -41 3 -29 29 15 49 50 22z
m-684 -71 c16 -35 15 -76 -3 -99 -13 -17 -18 -18 -40 -6 -30 16 -32 43 -5 77
11 14 20 32 20 39 0 23 16 16 28 -11z m-118 -112 c0 -27 3 -58 6 -70 9 -31
-26 -48 -71 -33 -32 10 -33 13 -24 38 6 15 16 34 23 42 7 8 16 27 20 43 4 18
13 27 26 27 17 0 20 -7 20 -47z m590 27 c9 -16 14 -232 8 -334 -1 -16 -71 -76
-93 -80 -4 0 -11 9 -16 21 -6 17 -2 30 16 52 19 22 25 40 25 80 0 44 -4 55
-35 87 -19 19 -35 40 -35 45 0 30 88 145 112 148 4 1 12 -8 18 -19z m128 -34
c2 -10 -1 -23 -7 -29 -16 -16 -34 6 -26 33 8 24 28 22 33 -4z m4 -133 c2 -10
1 -27 -3 -38 -4 -11 -10 -29 -14 -40 -6 -19 -8 -18 -31 10 -26 32 -32 70 -11
78 27 12 56 6 59 -10z m-334 -112 c3 -27 -3 -39 -29 -62 -17 -15 -36 -30 -41
-31 -5 -2 -2 -17 6 -33 21 -40 20 -50 -6 -63 -48 -24 -79 -32 -96 -23 -9 5
-29 14 -44 20 -24 9 -28 16 -28 50 0 48 13 59 75 63 40 2 51 7 53 22 5 25 26
46 47 46 8 0 21 11 27 25 15 33 32 27 36 -14z"/>
<path d="M4129 11089 c-20 -4 -53 -18 -73 -30 -24 -14 -65 -24 -118 -30 -62
-6 -89 -14 -118 -34 -21 -15 -57 -29 -79 -32 -24 -3 -49 -15 -62 -30 -13 -13
-46 -30 -75 -39 -28 -8 -59 -23 -69 -34 -11 -12 -37 -22 -66 -26 -32 -4 -57
-15 -73 -30 -13 -13 -39 -29 -57 -35 -19 -7 -45 -22 -59 -35 -14 -13 -46 -32
-72 -44 -26 -11 -50 -25 -53 -30 -4 -6 -22 -17 -42 -25 -19 -8 -51 -28 -69
-45 -19 -16 -42 -30 -51 -30 -10 0 -29 -11 -43 -25 -45 -45 -104 -92 -136
-108 -18 -9 -46 -29 -62 -44 -17 -15 -45 -39 -62 -53 -50 -40 -290 -281 -290
-291 0 -5 -6 -9 -12 -9 -7 0 -23 -16 -36 -35 -12 -19 -28 -35 -35 -35 -8 0
-19 -11 -27 -24 -7 -14 -25 -30 -40 -36 -19 -8 -31 -23 -39 -51 -6 -21 -16
-39 -22 -39 -5 0 -14 -11 -19 -25 -9 -24 -55 -79 -116 -139 -17 -17 -37 -48
-43 -68 -7 -21 -17 -38 -22 -38 -6 0 -19 -19 -29 -43 -10 -23 -33 -53 -49 -65
-17 -12 -31 -29 -31 -37 0 -7 -12 -27 -26 -44 -14 -17 -30 -47 -36 -67 -5 -20
-20 -46 -33 -58 -13 -12 -28 -40 -34 -63 -7 -24 -22 -50 -37 -60 -19 -14 -27
-31 -33 -76 -4 -31 -15 -65 -25 -75 -9 -11 -25 -49 -35 -85 -10 -36 -29 -79
-43 -95 -14 -17 -28 -47 -31 -69 -4 -24 -18 -48 -37 -66 -28 -27 -30 -33 -30
-105 0 -62 -5 -88 -26 -132 -17 -37 -28 -83 -34 -138 -5 -63 -15 -97 -39 -142
-27 -53 -31 -70 -31 -138 0 -88 -24 -289 -40 -342 -7 -22 -11 -145 -12 -330 0
-287 1 -298 27 -415 24 -102 28 -144 29 -277 1 -146 2 -158 23 -180 15 -16 25
-45 32 -103 7 -48 22 -99 37 -129 19 -37 28 -71 32 -130 4 -69 9 -83 33 -108
16 -18 30 -46 34 -71 4 -23 17 -53 30 -67 13 -14 31 -54 40 -89 9 -36 27 -78
41 -94 17 -21 24 -41 24 -72 0 -38 4 -47 34 -70 20 -15 36 -38 40 -55 3 -16
15 -38 26 -47 11 -10 25 -33 31 -53 6 -19 21 -48 34 -65 12 -16 25 -42 28 -57
4 -14 23 -41 42 -59 19 -19 35 -38 35 -44 0 -5 14 -28 30 -49 17 -22 30 -47
30 -56 0 -10 27 -46 61 -81 34 -35 68 -79 76 -98 8 -19 28 -47 44 -63 16 -16
29 -36 29 -44 0 -8 4 -14 9 -14 5 0 33 -26 62 -57 106 -112 360 -363 368 -363
4 0 13 -11 20 -24 7 -13 28 -30 47 -39 19 -9 34 -21 34 -27 0 -6 13 -16 29
-23 28 -12 96 -63 138 -104 13 -12 43 -31 68 -42 25 -11 45 -24 45 -29 0 -5
11 -14 24 -20 14 -6 42 -27 63 -46 22 -19 52 -38 68 -42 17 -3 39 -15 50 -24
11 -10 36 -26 55 -35 19 -10 48 -28 63 -41 16 -13 34 -24 41 -24 7 0 33 -15
57 -34 27 -20 61 -36 87 -40 24 -4 60 -18 80 -31 20 -14 45 -25 55 -25 23 0
57 -17 79 -41 10 -9 43 -23 75 -29 32 -7 79 -23 104 -36 27 -15 77 -28 126
-34 50 -6 98 -19 125 -34 26 -14 76 -28 126 -34 57 -8 92 -18 113 -34 27 -21
46 -23 202 -30 95 -4 230 -12 301 -17 158 -13 568 -14 656 -1 35 5 136 12 225
16 149 6 164 8 221 35 43 20 83 31 138 36 60 5 84 11 105 28 18 16 46 25 91
30 77 8 140 26 195 54 21 12 49 21 61 21 30 0 87 21 99 36 6 8 36 20 68 28 32
8 70 24 86 35 15 11 56 25 89 30 68 11 81 16 100 42 6 10 34 25 61 34 27 9 51
22 54 29 3 7 32 22 65 34 33 12 65 29 72 37 7 8 19 15 27 15 19 0 71 28 96 51
11 10 35 23 54 30 18 6 38 19 43 29 6 11 29 25 53 32 41 11 65 28 145 94 20
18 54 39 75 47 20 9 37 21 37 27 0 6 17 18 37 28 21 9 52 32 71 50 19 17 45
35 58 38 14 4 29 15 34 25 6 10 26 26 45 35 19 9 35 22 35 29 0 7 14 18 31 25
17 7 58 39 92 71 34 32 74 61 89 65 16 3 38 19 50 35 12 16 29 31 39 34 9 3
42 30 72 59 31 29 68 61 81 70 28 18 69 54 159 139 34 31 65 57 70 57 7 0 49
37 96 85 6 6 67 67 136 138 69 70 129 127 133 127 5 0 15 11 22 25 7 14 18 25
23 25 11 0 46 41 47 56 0 6 11 16 24 22 13 6 27 20 31 31 3 12 11 21 16 21 5
0 35 27 67 59 74 77 80 83 100 103 9 9 22 22 27 27 6 6 36 35 67 65 85 80 83
91 -39 218 -209 215 -461 468 -467 468 -9 0 -156 149 -156 159 0 5 -25 33 -56
62 -30 30 -74 74 -97 98 -163 172 -190 186 -260 127 -23 -19 -54 -47 -68 -63
-56 -60 -138 -141 -205 -200 -38 -35 -82 -76 -99 -92 -16 -15 -40 -34 -52 -40
-13 -6 -23 -17 -23 -24 0 -13 -83 -97 -96 -97 -11 0 -104 -98 -104 -110 0 -6
-16 -20 -35 -31 -19 -11 -37 -29 -40 -40 -4 -10 -14 -19 -23 -19 -21 -1 -52
-23 -52 -39 0 -6 -3 -11 -8 -11 -4 0 -32 -20 -62 -45 -30 -25 -60 -45 -67 -45
-7 0 -43 -30 -81 -67 -38 -38 -95 -86 -125 -108 -31 -22 -61 -50 -68 -62 -7
-13 -16 -23 -21 -23 -5 0 -26 -16 -46 -35 -20 -19 -42 -35 -49 -35 -6 0 -28
-16 -48 -35 -21 -19 -45 -37 -54 -40 -10 -3 -24 -17 -31 -30 -7 -14 -19 -25
-25 -25 -7 0 -25 -15 -41 -33 -16 -19 -42 -37 -57 -41 -16 -4 -38 -17 -50 -29
-12 -13 -37 -33 -54 -46 -18 -12 -33 -28 -33 -34 0 -14 -81 -87 -96 -87 -6 0
-22 -16 -35 -35 -13 -19 -32 -38 -41 -41 -9 -3 -20 -14 -23 -25 -4 -10 -16
-24 -28 -30 -12 -6 -32 -24 -45 -40 -13 -16 -28 -29 -34 -29 -6 0 -28 -17 -49
-37 -73 -75 -99 -93 -130 -93 -23 0 -34 -7 -47 -30 -9 -16 -20 -30 -24 -30 -5
0 -25 -15 -45 -34 -21 -18 -51 -40 -68 -49 -16 -8 -41 -25 -54 -36 -13 -12
-33 -21 -43 -21 -25 0 -57 -17 -87 -46 -13 -13 -32 -24 -43 -24 -10 0 -30 -12
-43 -26 -13 -14 -46 -31 -76 -39 -28 -8 -62 -24 -75 -36 -16 -15 -44 -25 -86
-31 -41 -5 -68 -14 -78 -27 -23 -27 -55 -41 -94 -41 -22 0 -45 -9 -64 -25 -35
-29 -106 -45 -202 -45 -52 0 -77 -5 -114 -25 -41 -22 -68 -27 -189 -35 -78 -5
-164 -14 -192 -21 -154 -33 -393 -36 -535 -5 -41 10 -132 21 -201 26 -106 8
-132 13 -170 34 -29 17 -60 26 -89 26 -89 1 -180 20 -218 45 -20 14 -49 25
-65 25 -34 0 -65 15 -87 43 -11 13 -35 22 -73 28 -31 4 -70 17 -87 29 -17 12
-54 28 -82 35 -28 8 -63 25 -77 38 -14 14 -36 28 -49 32 -12 3 -35 18 -49 31
-15 13 -38 27 -52 30 -46 9 -143 63 -196 109 -89 77 -114 95 -126 95 -8 0 -38
18 -68 40 -50 37 -72 57 -146 130 -17 17 -34 30 -38 30 -13 0 -74 66 -91 99
-9 17 -22 31 -29 31 -8 0 -27 15 -45 33 -17 17 -38 39 -47 47 -39 38 -74 81
-79 98 -4 10 -18 25 -31 32 -14 7 -25 18 -25 23 0 5 -17 29 -37 52 -45 51 -77
97 -99 145 -9 19 -22 38 -29 43 -20 11 -100 136 -114 177 -6 19 -22 51 -35 70
-12 19 -26 48 -30 64 -4 15 -13 35 -21 43 -17 17 -33 72 -37 133 -3 39 0 45
17 45 14 0 22 -11 31 -40 6 -22 23 -52 37 -67 15 -15 36 -48 47 -74 11 -25 31
-55 45 -66 14 -11 25 -24 25 -30 0 -6 16 -29 35 -52 19 -22 47 -56 62 -74 16
-18 45 -49 65 -69 21 -21 38 -41 38 -45 0 -5 12 -21 28 -37 15 -15 35 -42 44
-59 9 -18 28 -36 42 -42 13 -5 51 -35 83 -67 32 -32 75 -71 96 -86 21 -16 57
-47 80 -69 23 -22 54 -49 70 -60 15 -10 27 -26 27 -33 0 -11 55 -35 82 -35 3
0 21 -13 40 -30 18 -16 46 -42 62 -56 17 -15 46 -33 65 -41 20 -9 48 -26 63
-38 15 -13 41 -26 58 -30 16 -4 30 -11 30 -16 0 -6 21 -19 48 -31 26 -11 59
-33 73 -48 19 -20 40 -30 75 -35 27 -4 65 -17 84 -30 19 -12 58 -28 85 -34 28
-7 61 -23 75 -36 14 -13 47 -29 74 -35 27 -6 62 -21 77 -34 23 -20 44 -25 121
-31 69 -5 103 -13 133 -30 31 -17 67 -25 155 -33 94 -8 123 -15 160 -36 l45
-26 406 0 c388 0 469 5 469 30 0 13 27 20 127 31 65 7 108 18 140 35 38 20 60
24 129 24 74 0 86 3 113 26 17 14 60 35 96 45 38 12 69 28 75 38 5 10 22 22
37 25 119 29 128 37 59 55 -45 11 -75 6 -141 -25 -66 -30 -463 -45 -608 -23
-40 6 -83 17 -97 24 -31 16 -161 35 -239 35 -43 0 -71 7 -106 25 -26 14 -69
30 -96 36 -26 6 -64 23 -83 39 -21 16 -55 31 -81 34 -26 4 -54 16 -64 27 -11
12 -34 26 -53 32 -46 17 -126 66 -162 102 -17 17 -50 37 -73 44 -24 8 -43 18
-43 22 0 5 -17 20 -37 33 -21 13 -66 51 -101 85 -35 34 -67 61 -71 61 -4 0
-13 11 -19 25 -7 14 -19 28 -29 32 -24 9 -155 143 -172 176 -8 15 -20 27 -28
27 -7 0 -13 4 -13 8 0 5 -20 31 -44 60 -24 28 -47 65 -51 82 -4 17 -17 38 -30
46 -13 8 -26 25 -29 38 -3 12 -19 37 -36 54 -16 18 -30 42 -30 55 0 13 -13 38
-30 57 -19 22 -31 48 -35 79 -10 68 -25 110 -43 120 -10 5 -23 30 -30 56 -7
26 -24 63 -37 83 -16 23 -25 51 -25 75 0 43 -18 126 -31 143 -17 21 -30 121
-41 314 -14 246 -14 300 -1 545 8 140 16 213 28 245 22 59 44 157 45 197 0 18
10 43 24 60 13 15 29 46 36 68 7 22 18 45 24 50 27 23 46 62 46 96 0 23 10 51
26 75 15 21 35 58 45 82 10 23 23 42 29 42 6 0 20 20 31 44 10 24 25 46 33 49
8 3 20 23 26 43 8 24 39 64 81 106 38 38 69 75 69 83 0 8 4 15 10 15 12 0 190
176 190 188 0 5 11 15 25 22 14 7 25 19 25 25 0 6 12 18 28 26 15 7 42 31 60
51 19 21 38 38 44 38 5 0 19 11 30 25 13 17 29 25 51 25 38 0 47 6 70 43 10
15 23 27 30 27 8 0 24 11 37 25 13 14 47 32 76 41 28 8 61 26 74 39 14 15 35
25 50 25 39 0 91 19 120 45 14 12 44 27 68 34 64 18 80 57 65 158 -6 41 -15
78 -20 82 -24 16 -43 59 -43 97 0 45 -16 101 -35 124 -13 15 -26 87 -44 252
-6 48 -17 100 -25 115 -19 37 -36 163 -36 266 0 45 -5 100 -11 122 -5 22 -14
56 -19 75 -5 19 -10 87 -11 152 -2 112 -3 116 -26 127 -13 6 -25 11 -26 10 -1
-1 -18 -5 -38 -10z m-2682 -4581 c-2 -13 -4 -3 -4 22 0 25 2 35 4 23 2 -13 2
-33 0 -45z m77 -90 c18 -86 18 -100 -1 -96 -14 3 -19 15 -21 61 -3 56 13 81
22 35z"/>
<path d="M15529 10014 c-24 -7 -38 -45 -45 -121 -8 -90 -21 -130 -44 -136 -18
-5 -27 -37 -33 -126 -2 -32 1 -35 33 -42 19 -4 42 -17 52 -29 10 -12 39 -28
65 -36 26 -8 59 -25 73 -38 15 -15 48 -29 83 -36 37 -7 62 -18 70 -31 7 -11
30 -24 52 -30 22 -6 51 -21 65 -34 14 -13 42 -31 62 -39 20 -9 39 -25 43 -35
6 -20 14 -24 73 -36 18 -4 37 -16 43 -27 6 -11 23 -24 38 -29 16 -6 34 -21 42
-35 7 -14 28 -31 45 -39 18 -7 35 -23 39 -34 3 -12 14 -21 23 -21 33 0 80 -39
98 -80 14 -31 28 -46 55 -56 41 -17 149 -142 149 -174 0 -13 12 -25 35 -34 24
-10 35 -21 35 -36 0 -12 10 -25 25 -32 18 -8 29 -24 36 -54 6 -24 24 -57 40
-74 23 -24 29 -39 29 -75 0 -39 3 -47 24 -55 18 -6 29 -22 37 -52 7 -24 23
-55 37 -69 20 -23 25 -41 29 -110 5 -69 10 -87 29 -106 33 -33 44 -57 44 -97
0 -23 9 -45 27 -66 21 -26 28 -47 36 -118 5 -48 18 -114 29 -147 28 -83 35
-193 36 -630 2 -515 -9 -765 -35 -825 -12 -26 -25 -90 -32 -155 -10 -88 -17
-115 -34 -133 -15 -16 -23 -42 -28 -89 -6 -58 -11 -70 -38 -92 -29 -24 -32
-32 -37 -106 -5 -63 -11 -85 -29 -105 -12 -14 -28 -47 -35 -75 -7 -27 -23 -61
-35 -75 -13 -14 -26 -39 -30 -57 -3 -17 -19 -51 -34 -75 -16 -24 -32 -60 -35
-80 -4 -21 -17 -50 -30 -65 -13 -15 -31 -42 -40 -60 -9 -18 -25 -37 -35 -42
-11 -7 -24 -31 -31 -61 -7 -31 -21 -57 -36 -69 -13 -10 -24 -26 -24 -35 0 -9
-11 -28 -25 -42 -13 -13 -36 -44 -51 -69 -14 -25 -30 -45 -35 -45 -5 0 -17
-15 -26 -34 -8 -19 -26 -39 -39 -45 -13 -6 -24 -17 -24 -25 0 -8 -11 -23 -23
-33 -13 -10 -29 -28 -36 -41 -6 -12 -25 -29 -41 -37 -17 -9 -30 -22 -30 -30 0
-22 -137 -162 -165 -169 -13 -3 -26 -14 -30 -25 -5 -18 -97 -101 -111 -101 -4
0 -22 -15 -41 -32 -56 -57 -87 -82 -128 -109 -22 -14 -46 -33 -54 -42 -7 -9
-23 -17 -35 -17 -12 0 -36 -16 -55 -35 -18 -19 -38 -35 -44 -35 -7 0 -24 -11
-39 -25 -15 -13 -46 -32 -70 -42 -24 -9 -56 -27 -71 -40 -16 -13 -41 -23 -55
-23 -29 -1 -62 -21 -62 -38 0 -11 -52 -32 -81 -32 -10 0 -26 -10 -36 -23 -25
-32 -34 -36 -99 -48 -31 -6 -69 -20 -84 -31 -16 -11 -54 -23 -91 -28 -74 -9
-101 -18 -112 -36 -9 -15 -69 -34 -109 -34 -43 0 -73 -19 -90 -56 l-16 -35
141 6 c78 4 180 11 227 16 47 5 175 12 285 15 202 5 289 16 303 38 13 21 62
36 116 36 38 0 67 7 102 26 32 17 83 31 149 41 69 10 106 21 120 34 12 10 36
21 55 24 55 9 110 27 110 36 0 12 55 39 78 39 11 0 36 12 57 26 21 14 63 30
94 36 35 7 67 21 86 37 17 15 48 33 70 40 22 8 47 24 57 36 10 12 30 25 46 28
16 3 43 17 59 31 16 14 41 28 56 31 15 4 37 19 50 34 12 15 38 34 57 41 19 8
43 25 53 37 10 13 27 23 37 23 9 0 24 7 31 17 8 9 37 31 64 49 28 17 61 44 74
58 14 14 29 26 34 26 5 0 18 11 29 25 11 14 27 25 37 25 9 0 31 15 47 33 17
17 39 40 50 49 89 79 344 334 344 346 0 7 11 18 25 24 14 6 25 14 25 18 0 7
33 44 114 130 13 14 27 39 30 55 7 29 20 46 97 124 24 23 38 49 42 74 4 23 18
49 36 68 17 17 31 39 31 50 0 11 10 24 23 30 15 7 28 26 36 55 7 24 22 50 32
58 11 7 26 36 35 65 8 29 26 62 40 74 14 12 27 37 30 58 4 21 17 48 30 60 14
13 28 44 35 78 7 31 23 68 35 83 13 16 25 49 29 80 9 66 19 93 44 120 12 12
23 42 27 75 4 36 15 64 32 84 23 28 25 42 33 167 7 109 13 145 30 175 16 30
23 67 30 175 9 130 26 304 33 347 16 89 17 190 2 276 -9 52 -22 170 -30 262
-10 118 -18 173 -29 185 -21 25 -25 44 -36 170 -9 103 -13 115 -35 133 -17 14
-27 34 -32 66 -5 32 -15 55 -35 72 -19 18 -29 40 -34 74 -4 28 -18 60 -31 76
-12 15 -28 48 -34 74 -7 25 -18 48 -26 51 -7 3 -25 27 -38 55 -14 27 -31 53
-37 57 -6 3 -21 30 -34 58 -13 28 -35 62 -49 75 -14 14 -26 30 -26 37 0 6 -11
19 -25 28 -14 9 -25 23 -25 30 0 8 -16 29 -35 47 -19 19 -35 37 -35 42 0 12
-156 167 -168 167 -5 0 -15 11 -22 25 -7 14 -16 25 -20 25 -3 0 -34 27 -68 59
-34 33 -75 67 -91 77 -16 10 -32 26 -34 36 -3 10 -17 22 -31 28 -15 5 -31 21
-38 35 -6 14 -22 28 -35 31 -13 4 -23 9 -23 13 0 17 -43 51 -65 51 -34 0 -75
21 -75 37 0 8 -13 20 -30 26 -18 7 -33 22 -39 39 -8 23 -17 28 -61 34 -37 5
-54 12 -62 28 -14 27 -28 36 -55 36 -13 0 -40 15 -60 34 -21 18 -47 35 -58 37
-11 2 -25 15 -32 29 -14 29 -38 38 -111 39 -43 1 -58 6 -78 26 -16 16 -45 29
-76 35 -55 11 -64 15 -95 43 -16 14 -44 22 -98 27 -56 5 -85 14 -108 30 -26
20 -49 24 -166 32 -168 12 -176 13 -203 40 -21 21 -31 22 -228 24 -113 2 -212
1 -221 -2z m1571 -613 c0 -5 24 -17 53 -26 28 -9 61 -27 72 -40 11 -12 36 -28
57 -34 22 -7 45 -25 60 -46 15 -24 34 -37 56 -41 17 -3 32 -10 32 -15 0 -4 15
-11 34 -14 51 -10 73 -35 68 -77 -5 -48 -32 -62 -97 -51 l-50 8 -5 55 c-6 63
-28 76 -42 23 -9 -36 -34 -48 -83 -39 -35 7 -49 19 -59 52 -5 16 0 23 26 35
24 12 28 17 16 21 -9 4 -28 0 -43 -8 -15 -8 -31 -11 -36 -8 -5 3 -16 30 -25
60 -9 31 -23 58 -35 64 -14 8 -19 21 -19 50 0 22 5 40 10 40 6 0 10 -4 10 -9z
m669 -1283 c-1 -13 -5 -36 -9 -53 -7 -26 -8 -22 -9 23 0 29 3 52 9 52 6 0 9
-10 9 -22z"/>
<path d="M18268 8948 c-6 -17 8 -68 22 -82 8 -8 10 3 8 38 -3 47 -21 72 -30
44z"/>
<path d="M4874 8690 c-12 -5 -28 -17 -35 -28 -8 -10 -27 -27 -44 -38 -16 -10
-34 -24 -38 -31 -4 -7 -23 -19 -42 -27 -18 -8 -36 -23 -40 -35 -3 -11 -15 -23
-25 -26 -11 -3 -37 -23 -59 -44 -79 -76 -167 -149 -198 -165 -19 -9 -39 -30
-46 -49 -8 -18 -30 -46 -49 -62 -19 -17 -44 -37 -54 -46 -32 -28 -94 -98 -94
-107 0 -5 -34 -44 -76 -88 -41 -43 -87 -93 -102 -110 -15 -17 -53 -60 -84 -95
-58 -64 -78 -91 -141 -185 -19 -28 -57 -73 -86 -101 -38 -38 -51 -58 -51 -80
0 -19 -10 -39 -30 -58 -24 -23 -30 -37 -30 -71 0 -36 5 -46 30 -64 17 -12 30
-28 30 -35 0 -8 12 -21 28 -29 15 -8 43 -28 62 -45 19 -17 38 -31 41 -31 3 0
11 -11 17 -25 6 -14 18 -25 25 -25 7 0 24 -12 38 -26 13 -14 42 -35 63 -46 21
-11 50 -33 63 -49 14 -16 31 -29 38 -29 8 0 20 -12 27 -27 8 -17 25 -30 48
-36 19 -5 49 -22 67 -38 19 -16 38 -29 43 -29 9 0 44 -30 111 -94 14 -14 39
-28 55 -31 46 -10 84 -27 84 -37 0 -5 19 -17 43 -27 23 -10 57 -33 74 -50 18
-17 40 -31 48 -31 8 0 25 -10 36 -21 12 -12 43 -29 70 -38 27 -10 57 -25 66
-34 10 -8 37 -22 61 -30 23 -8 51 -26 62 -40 12 -16 34 -27 61 -31 22 -4 57
-18 77 -31 20 -13 61 -30 91 -36 31 -7 67 -22 81 -35 14 -13 47 -28 74 -34 27
-6 60 -21 73 -34 18 -18 38 -24 99 -30 50 -4 96 -15 130 -31 29 -14 84 -29
123 -35 39 -5 92 -21 118 -34 39 -20 73 -27 176 -35 79 -6 137 -15 150 -24 42
-27 128 -37 324 -37 190 0 197 1 227 23 17 13 48 29 68 36 21 7 44 22 52 33 8
11 36 30 63 42 26 13 54 30 62 39 7 10 20 17 27 17 8 0 29 13 47 30 52 48 134
110 146 110 6 0 26 15 45 33 20 17 54 48 76 67 23 19 51 46 63 58 12 13 38 32
57 42 39 20 73 48 158 130 31 30 69 61 85 67 27 13 36 36 17 48 -15 9 -88 -5
-103 -19 -22 -22 -79 -34 -184 -39 -84 -4 -112 -10 -160 -33 -49 -23 -78 -28
-183 -35 -164 -11 -506 -11 -700 0 -134 7 -164 12 -219 36 -44 18 -89 28 -140
31 -92 6 -191 24 -191 35 0 10 -94 39 -124 39 -12 0 -37 11 -56 24 -20 13 -62
29 -95 36 -33 6 -76 23 -95 36 -20 13 -57 28 -82 32 -26 5 -68 23 -94 41 -26
17 -56 31 -66 31 -10 0 -26 9 -36 20 -9 12 -39 27 -67 35 -27 8 -70 29 -95 45
-25 16 -53 30 -62 30 -9 0 -25 10 -35 23 -10 12 -34 29 -53 36 -19 8 -45 25
-58 38 -13 13 -41 31 -63 39 -21 9 -39 19 -39 23 0 4 -19 18 -42 31 -24 13
-55 35 -70 49 -38 36 -89 79 -115 97 -17 11 -23 25 -23 52 0 33 9 48 69 112
39 41 89 96 113 122 24 26 48 48 54 48 6 0 19 16 30 35 10 20 29 43 42 51 12
8 22 21 22 28 0 8 14 19 30 25 17 6 34 21 40 35 5 15 16 26 24 26 8 0 25 15
37 33 32 45 95 105 119 112 11 4 20 11 20 17 0 12 109 118 121 118 4 0 20 11
36 24 15 13 45 29 66 35 43 14 45 23 16 52 -11 11 -27 36 -35 55 -8 18 -29 49
-46 68 -51 54 -88 103 -88 114 0 6 -11 19 -24 29 -13 11 -33 38 -45 61 -12 24
-28 45 -36 48 -8 3 -17 19 -20 35 -6 28 -29 60 -43 58 -4 0 -17 -4 -28 -9z"/>
<path d="M14940 8685 c-8 -10 -19 -25 -25 -35 -36 -61 -67 -100 -80 -100 -9 0
-19 -17 -26 -46 -7 -27 -21 -51 -34 -60 -13 -8 -29 -29 -36 -45 -6 -17 -23
-35 -36 -40 -12 -4 -23 -15 -23 -23 0 -8 -14 -25 -30 -38 -23 -18 -31 -33 -33
-63 l-2 -39 53 -9 c38 -6 57 -15 68 -32 8 -13 26 -26 39 -29 14 -4 27 -18 33
-36 6 -16 18 -30 26 -30 8 0 33 -16 56 -35 23 -19 45 -35 49 -35 12 0 281
-272 281 -284 0 -3 20 -24 45 -47 25 -23 55 -64 68 -90 12 -27 27 -49 34 -49
7 0 23 -16 35 -35 13 -19 33 -37 45 -40 21 -5 43 -54 43 -95 0 -25 -30 -60
-51 -60 -11 0 -24 -11 -31 -25 -6 -14 -18 -25 -26 -25 -8 0 -29 -15 -46 -32
-38 -40 -131 -103 -166 -113 -14 -4 -37 -20 -51 -35 -15 -16 -43 -32 -62 -35
-22 -4 -42 -17 -52 -31 -8 -13 -21 -24 -28 -24 -7 0 -39 -15 -70 -34 -31 -19
-70 -37 -87 -41 -17 -4 -43 -17 -58 -29 -15 -13 -45 -29 -67 -36 -22 -7 -48
-21 -58 -31 -10 -10 -30 -22 -45 -25 -79 -18 -111 -28 -147 -49 -22 -12 -64
-28 -93 -35 -29 -7 -58 -20 -65 -29 -7 -10 -44 -25 -84 -35 -40 -10 -73 -22
-73 -26 0 -16 -58 -29 -165 -38 -89 -7 -122 -14 -170 -37 -56 -27 -72 -30
-235 -37 -96 -4 -210 -12 -253 -16 -43 -4 -111 -4 -150 0 -40 4 -144 12 -232
18 -169 10 -199 15 -255 48 -27 15 -61 21 -148 26 -108 6 -137 14 -201 50 -24
14 -58 9 -62 -9 -1 -5 13 -16 30 -25 17 -8 33 -22 36 -31 3 -10 36 -42 73 -73
37 -31 73 -65 80 -76 7 -11 19 -20 27 -20 8 0 27 -13 42 -30 14 -16 31 -30 37
-30 5 0 24 -13 40 -30 62 -59 101 -90 133 -105 18 -9 40 -27 49 -41 9 -13 22
-24 30 -24 7 0 23 -14 36 -30 16 -22 33 -32 63 -37 25 -4 50 -17 65 -33 14
-15 42 -32 63 -39 20 -7 42 -21 47 -31 6 -11 27 -24 48 -30 21 -5 48 -21 60
-35 12 -14 32 -25 44 -26 13 0 64 -2 113 -4 112 -5 315 13 335 30 22 18 62 25
199 34 101 6 126 11 150 29 19 14 61 26 121 36 51 8 99 21 109 29 25 21 49 28
136 37 60 6 83 13 95 27 22 28 54 43 89 43 16 0 42 10 58 23 15 13 59 31 96
40 39 10 81 27 99 42 18 15 42 25 62 25 24 0 40 8 62 33 21 24 41 36 72 40 26
5 47 15 54 27 9 13 32 24 70 31 42 8 62 18 73 35 8 13 20 24 27 24 6 0 30 18
54 40 25 23 54 40 67 40 13 0 32 9 43 21 23 26 67 49 92 49 10 0 28 14 40 30
13 17 29 30 38 30 8 0 24 16 35 35 12 19 28 35 36 35 9 0 30 13 49 30 18 16
49 32 68 35 25 5 36 13 41 32 3 13 19 32 35 41 17 9 32 24 35 34 3 9 19 21 36
27 27 9 46 24 119 93 15 14 41 33 56 41 16 8 40 27 53 41 14 14 32 26 42 26 9
0 22 13 28 29 7 15 23 33 35 39 16 7 25 22 29 47 7 43 -4 76 -38 117 -14 16
-25 36 -25 43 0 7 -11 22 -24 32 -13 10 -30 32 -39 48 -8 17 -27 41 -41 54
-14 14 -26 31 -26 38 0 8 -12 26 -26 40 -14 14 -34 38 -43 52 -17 28 -25 37
-126 145 -41 43 -69 83 -77 108 -8 26 -20 43 -35 49 -30 11 -152 135 -164 167
-5 12 -25 30 -44 38 -19 8 -35 20 -35 28 0 8 -9 16 -21 19 -11 3 -25 19 -32
36 -6 18 -23 35 -39 42 -16 6 -33 21 -39 31 -6 11 -25 26 -43 33 -17 7 -54 37
-81 67 -28 29 -67 64 -88 76 -20 13 -37 28 -37 33 0 5 -16 19 -35 30 -19 12
-35 27 -35 33 0 7 -15 21 -34 31 -19 10 -39 29 -45 42 -6 13 -19 23 -28 23
-10 0 -27 3 -39 6 -12 3 -26 -1 -34 -11z"/>
</g>
</svg>
